<svg width="268" height="229" viewBox="0 0 268 229" fill="none" xmlns="http://www.w3.org/2000/svg">
<path fill-rule="evenodd" clip-rule="evenodd" d="M85.4122 2.55638C77.5492 6.45438 68.4832 13.6134 66.4622 17.5224C64.6312 21.0644 62.0452 32.4384 62.0192 37.0664C62.0052 39.6404 60.5102 41.6804 53.4972 48.6934C44.8122 57.3784 44.7592 57.2384 52.1882 45.2974C54.3512 41.8204 55.5722 37.7884 57.0342 29.2974C59.7622 13.4564 59.7782 13.5674 55.2522 17.4774C50.0942 21.9334 43.2922 30.1454 40.8052 34.9174C39.0052 38.3714 38.8062 40.0674 39.2852 47.9174C39.5872 52.8824 40.2782 58.0964 40.8202 59.5024C41.6652 61.6944 41.1782 63.0504 37.4132 69.0024C34.9972 72.8214 32.5212 77.4384 31.9112 79.2624C29.7352 85.7744 30.0882 81.6644 32.4702 72.7634C34.8592 63.8374 34.8732 63.5244 33.4592 51.4194C32.6702 44.6624 31.8662 38.9764 31.6742 38.7834C30.2792 37.3894 21.8612 53.1504 19.9532 60.7254C18.4902 66.5374 19.6192 71.7864 24.5472 82.0754C27.8702 89.0144 27.9242 89.3234 26.5502 93.5754C25.7742 95.9794 24.4852 100.87 23.6872 104.445L22.2362 110.945L22.1192 101.42C22.0092 92.4884 21.7162 91.2144 17.4052 80.9204C14.8762 74.8844 12.4352 69.5524 11.9802 69.0714C10.5572 67.5664 7.84822 78.5364 7.28222 88.0944C6.75722 96.9644 6.83522 97.4104 9.85522 102.689C11.5692 105.683 14.9362 110.244 17.3382 112.823L21.7042 117.512L22.2562 128.229L22.8072 138.945L20.0032 130.782C17.7292 124.164 15.6682 120.686 9.11723 112.407C0.00222683 100.888 -0.705779 100.915 0.392221 112.729C1.37822 123.337 3.77122 131.535 6.83022 134.778C8.30022 136.336 12.8772 139.861 17.0022 142.611L24.5022 147.612L27.5852 156.278C29.2802 161.045 31.0392 165.845 31.4942 166.945C32.6642 169.775 31.9332 168.88 26.5982 160.945C22.7592 155.235 19.9212 152.531 11.1972 146.269C5.31523 142.048 0.353221 139.008 0.170221 139.515C-0.667779 141.843 5.88122 157.575 10.2882 163.822C12.6012 167.098 22.0622 171.853 29.9382 173.697C34.9752 174.877 35.5272 175.33 40.0162 181.974C42.6282 185.84 45.4932 189.608 46.3832 190.347C47.2742 191.085 48.0022 192.107 48.0022 192.616C48.0022 193.125 44.7912 190.839 40.8682 187.536C34.5432 182.212 32.3662 181.074 21.6872 177.502C15.0622 175.285 9.48822 173.625 9.30122 173.813C8.46022 174.654 17.4522 186.57 22.7202 191.594C28.4102 197.022 28.7312 197.175 36.8772 198.366C41.4622 199.037 46.9882 199.285 49.1582 198.919C52.9762 198.274 53.3702 198.488 61.3032 205.533C65.8122 209.538 69.9522 213.21 70.5022 213.694C71.0522 214.177 67.6772 212.549 63.0022 210.076L54.5022 205.579L41.0022 204.958L27.5022 204.337L32.2942 208.732C34.9292 211.149 39.8692 214.773 43.2712 216.786C50.2152 220.893 55.0232 221.391 68.1322 219.357L75.1442 218.269L80.9942 223.357C86.3912 228.051 90.0022 229.733 90.0022 227.553C90.0022 227.062 87.3022 224.161 84.0022 221.105L78.0022 215.551V203.49V191.43L72.7522 182.467C69.8652 177.537 67.1822 173.49 66.7912 173.474C65.4102 173.417 63.0022 183.887 63.0022 189.948C63.0022 195.684 63.3322 196.569 68.0082 203.356L73.0142 210.623L69.2582 207.542C67.1922 205.848 63.3592 202.545 60.7392 200.203L55.9762 195.945L58.1042 184.445L60.2322 172.945L58.0242 163.695C56.8092 158.607 55.4262 154.445 54.9512 154.445C53.6312 154.445 49.2472 162.419 47.0392 168.836C45.1942 174.2 45.1672 174.869 46.6252 179.256C47.4822 181.835 49.0922 185.52 50.2032 187.445L52.2232 190.945L50.0472 188.98C48.8502 187.9 45.8012 183.904 43.2732 180.1L38.6752 173.185L43.7872 162.908C48.6082 153.214 48.9382 152.052 49.6012 142.422C50.2852 132.483 50.2522 132.241 48.3402 133.264C45.6772 134.689 38.9842 142.08 36.0782 146.805C33.8382 150.446 33.7602 151.097 34.7052 158.305C35.2562 162.507 35.5992 166.081 35.4682 166.248C35.0362 166.797 29.0022 149.38 29.0022 147.584C29.0022 146.618 32.5012 141.943 36.7772 137.195C43.7752 129.425 44.8322 127.7 47.3642 119.925C48.9122 115.174 49.9582 111.067 49.6892 110.799C48.7532 109.863 38.7902 115.6 34.5252 119.531C29.9472 123.75 28.1142 128.467 27.8772 136.638L27.7522 140.945L26.9512 136.445C26.5112 133.97 26.1172 128.791 26.0762 124.936C26.0102 118.711 26.2542 117.767 28.2522 116.507C29.4902 115.726 34.0612 112.92 38.4112 110.27C45.3182 106.063 47.0112 104.421 51.7752 97.3054L57.2302 89.1574L52.0312 89.8474C39.1462 91.5564 33.0982 95.8154 28.8952 106.137L26.9372 110.945L27.5512 106.06C27.8892 103.374 28.9312 98.6494 29.8682 95.5604L31.5702 89.9454L42.8852 86.7024C52.5712 83.9274 55.1002 82.7444 60.4512 78.4864C69.9122 70.9574 69.9892 70.7684 63.9492 69.9384C61.1262 69.5504 55.9542 69.5384 52.4542 69.9134C46.1992 70.5834 45.9872 70.7064 39.9472 77.1634C33.3062 84.2634 33.4002 83.5564 40.8152 70.6954L44.4182 64.4454H56.6212C68.3822 64.4454 69.1262 64.3164 77.1382 60.8874C81.7112 58.9294 85.6402 57.1414 85.8692 56.9124C86.7032 56.0784 76.7482 52.4484 70.4392 51.2854C62.9762 49.9104 60.9512 50.5534 52.5022 56.9804L47.5022 60.7844L51.0792 56.4284C53.0472 54.0324 56.8722 50.1784 59.5792 47.8644L64.5022 43.6554L75.5022 47.0684C86.4742 50.4734 86.5272 50.4784 96.2522 49.3514C101.615 48.7294 106 47.9334 105.997 47.5834C105.987 46.3934 95.0072 38.9554 90.4582 37.0564C86.0902 35.2334 85.7082 35.2284 79.4542 36.9214C75.8902 37.8854 71.4662 39.4444 69.6222 40.3844C66.7202 41.8644 66.1462 41.8984 65.3512 40.6374C64.6562 39.5354 66.4042 37.3274 72.5312 31.5634C79.7332 24.7874 81.2802 22.6494 86.5162 12.2294C89.7532 5.78437 92.1892 0.298381 91.9282 0.0373813C91.6662 -0.223619 88.7352 0.910379 85.4122 2.55638Z" fill="#CF9E21"/>
<path fill-rule="evenodd" clip-rule="evenodd" d="M182.585 2.55638C190.448 6.45438 199.514 13.6134 201.535 17.5224C203.366 21.0644 205.952 32.4384 205.978 37.0664C205.992 39.6404 207.487 41.6804 214.5 48.6934C223.185 57.3784 223.238 57.2384 215.809 45.2974C213.646 41.8204 212.425 37.7884 210.963 29.2974C208.235 13.4564 208.219 13.5674 212.745 17.4774C217.903 21.9334 224.705 30.1454 227.192 34.9174C228.992 38.3714 229.191 40.0674 228.712 47.9174C228.41 52.8824 227.719 58.0964 227.177 59.5024C226.332 61.6944 226.819 63.0504 230.584 69.0024C233 72.8214 235.476 77.4384 236.086 79.2624C238.262 85.7744 237.909 81.6644 235.527 72.7634C233.138 63.8374 233.124 63.5244 234.538 51.4194C235.327 44.6624 236.131 38.9764 236.323 38.7834C237.718 37.3894 246.136 53.1504 248.044 60.7254C249.507 66.5374 248.378 71.7864 243.45 82.0754C240.127 89.0144 240.073 89.3234 241.447 93.5754C242.223 95.9794 243.512 100.87 244.31 104.445L245.761 110.945L245.878 101.42C245.988 92.4884 246.281 91.2144 250.592 80.9204C253.121 74.8844 255.562 69.5524 256.017 69.0714C257.44 67.5664 260.149 78.5364 260.715 88.0944C261.24 96.9644 261.162 97.4104 258.142 102.689C256.428 105.683 253.061 110.244 250.659 112.823L246.293 117.512L245.741 128.229L245.19 138.945L247.994 130.782C250.268 124.164 252.329 120.686 258.88 112.407C267.995 100.888 268.703 100.915 267.605 112.729C266.619 123.337 264.226 131.535 261.167 134.778C259.697 136.336 255.12 139.861 250.995 142.611L243.495 147.612L240.412 156.278C238.717 161.045 236.958 165.845 236.503 166.945C235.333 169.775 236.064 168.88 241.399 160.945C245.238 155.235 248.076 152.531 256.8 146.269C262.682 142.048 267.644 139.008 267.827 139.515C268.665 141.843 262.116 157.575 257.709 163.822C255.396 167.098 245.935 171.853 238.059 173.697C233.022 174.877 232.47 175.33 227.981 181.974C225.369 185.84 222.504 189.608 221.614 190.347C220.723 191.085 219.995 192.107 219.995 192.616C219.995 193.125 223.206 190.839 227.129 187.536C233.454 182.212 235.631 181.074 246.31 177.502C252.935 175.285 258.509 173.625 258.696 173.813C259.537 174.654 250.545 186.57 245.277 191.594C239.587 197.022 239.266 197.175 231.12 198.366C226.535 199.037 221.009 199.285 218.839 198.919C215.021 198.274 214.627 198.488 206.694 205.533C202.185 209.538 198.045 213.21 197.495 213.694C196.945 214.177 200.32 212.549 204.995 210.076L213.495 205.579L226.995 204.958L240.495 204.337L235.703 208.732C233.068 211.149 228.128 214.773 224.726 216.786C217.782 220.893 212.974 221.391 199.865 219.357L192.853 218.269L187.003 223.357C181.606 228.051 177.995 229.733 177.995 227.553C177.995 227.062 180.695 224.161 183.995 221.105L189.995 215.551V203.49V191.43L195.245 182.467C198.132 177.537 200.815 173.49 201.206 173.474C202.587 173.417 204.995 183.887 204.995 189.948C204.995 195.684 204.665 196.569 199.989 203.356L194.983 210.623L198.739 207.542C200.805 205.848 204.638 202.545 207.258 200.203L212.021 195.945L209.893 184.445L207.765 172.945L209.973 163.695C211.188 158.607 212.571 154.445 213.046 154.445C214.366 154.445 218.75 162.419 220.958 168.836C222.803 174.2 222.83 174.869 221.372 179.256C220.515 181.835 218.905 185.52 217.794 187.445L215.774 190.945L217.95 188.98C219.147 187.9 222.196 183.904 224.724 180.1L229.322 173.185L224.21 162.908C219.389 153.214 219.059 152.052 218.396 142.422C217.712 132.483 217.745 132.241 219.657 133.264C222.32 134.689 229.013 142.08 231.919 146.805C234.159 150.446 234.237 151.097 233.292 158.305C232.741 162.507 232.398 166.081 232.529 166.248C232.961 166.797 238.995 149.38 238.995 147.584C238.995 146.618 235.496 141.943 231.22 137.195C224.222 129.425 223.165 127.7 220.633 119.925C219.085 115.174 218.039 111.067 218.308 110.799C219.244 109.863 229.207 115.6 233.472 119.531C238.05 123.75 239.883 128.467 240.12 136.638L240.245 140.945L241.046 136.445C241.486 133.97 241.88 128.791 241.921 124.936C241.987 118.711 241.743 117.767 239.745 116.507C238.507 115.726 233.936 112.92 229.586 110.27C222.679 106.063 220.986 104.421 216.222 97.3054L210.767 89.1574L215.966 89.8474C228.851 91.5564 234.899 95.8154 239.102 106.137L241.06 110.945L240.446 106.06C240.108 103.374 239.066 98.6494 238.129 95.5604L236.427 89.9454L225.112 86.7024C215.426 83.9274 212.897 82.7444 207.546 78.4864C198.085 70.9574 198.008 70.7684 204.048 69.9384C206.871 69.5504 212.043 69.5384 215.543 69.9134C221.798 70.5834 222.01 70.7064 228.05 77.1634C234.691 84.2634 234.597 83.5564 227.182 70.6954L223.579 64.4454H211.376C199.615 64.4454 198.871 64.3164 190.859 60.8874C186.286 58.9294 182.357 57.1414 182.128 56.9124C181.294 56.0784 191.249 52.4484 197.558 51.2854C205.021 49.9104 207.046 50.5534 215.495 56.9804L220.495 60.7844L216.918 56.4284C214.95 54.0324 211.125 50.1784 208.418 47.8644L203.495 43.6554L192.495 47.0684C181.523 50.4734 181.47 50.4784 171.745 49.3514C166.382 48.7294 161.997 47.9334 162 47.5834C162.01 46.3934 172.99 38.9554 177.539 37.0564C181.907 35.2334 182.289 35.2284 188.543 36.9214C192.107 37.8854 196.531 39.4444 198.375 40.3844C201.277 41.8644 201.851 41.8984 202.646 40.6374C203.341 39.5354 201.593 37.3274 195.466 31.5634C188.264 24.7874 186.717 22.6494 181.481 12.2294C178.244 5.78437 175.808 0.298381 176.069 0.0373813C176.331 -0.223619 179.262 0.910379 182.585 2.55638Z" fill="#CF9E21"/>
</svg>
