<svg width="435" height="65" viewBox="0 0 435 65" fill="none" xmlns="http://www.w3.org/2000/svg">
<rect width="435" height="65" rx="10" fill="#04220B"/>
<path d="M26.9446 45.5H21.8821L31.0994 19.3182H36.9545L46.1847 45.5H41.1222L34.1293 24.6875H33.9247L26.9446 45.5ZM27.1108 35.2344H40.9176V39.044H27.1108V35.2344ZM54.3761 19.3182V45.5H49.6332V19.3182H54.3761ZM68.3842 45.5H59.5121V19.3182H68.5632C71.1626 19.3182 73.3956 19.8423 75.2621 20.8906C77.1371 21.9304 78.5774 23.4261 79.5831 25.3778C80.5888 27.3295 81.0916 29.6648 81.0916 32.3835C81.0916 35.1108 80.5845 37.4545 79.5703 39.4148C78.5646 41.375 77.1115 42.8793 75.2109 43.9276C73.3189 44.9759 71.0433 45.5 68.3842 45.5ZM64.255 41.3963H68.1541C69.978 41.3963 71.4993 41.0639 72.718 40.3991C73.9368 39.7259 74.853 38.7244 75.4666 37.3949C76.0803 36.0568 76.3871 34.3864 76.3871 32.3835C76.3871 30.3807 76.0803 28.7187 75.4666 27.3977C74.853 26.0682 73.9453 25.0753 72.7436 24.419C71.5504 23.7543 70.0675 23.4219 68.2947 23.4219H64.255V41.3963ZM94.5277 45.5V19.3182H111.3V23.294H99.2706V30.402H110.15V34.3778H99.2706V45.5H94.5277ZM115.136 45.5V25.8636H119.623V29.1364H119.827C120.185 28.0028 120.799 27.1293 121.668 26.5156C122.546 25.8935 123.548 25.5824 124.673 25.5824C124.928 25.5824 125.214 25.5952 125.529 25.6207C125.853 25.6378 126.121 25.6676 126.335 25.7102V29.9673C126.138 29.8991 125.827 29.8395 125.401 29.7884C124.984 29.7287 124.579 29.6989 124.187 29.6989C123.343 29.6989 122.585 29.8821 121.911 30.2486C121.246 30.6065 120.722 31.1051 120.339 31.7443C119.955 32.3835 119.763 33.1207 119.763 33.956V45.5H115.136ZM134.708 45.8963C133.464 45.8963 132.343 45.6747 131.346 45.2315C130.357 44.7798 129.573 44.1151 128.994 43.2372C128.423 42.3594 128.137 41.277 128.137 39.9901C128.137 38.8821 128.342 37.9659 128.751 37.2415C129.16 36.517 129.718 35.9375 130.425 35.5028C131.133 35.0682 131.93 34.7401 132.816 34.5185C133.711 34.2884 134.636 34.1222 135.59 34.0199C136.741 33.9006 137.674 33.794 138.39 33.7003C139.106 33.598 139.626 33.4446 139.95 33.2401C140.282 33.027 140.448 32.6989 140.448 32.2557V32.179C140.448 31.2159 140.163 30.4702 139.592 29.9418C139.021 29.4134 138.198 29.1491 137.124 29.1491C135.991 29.1491 135.092 29.3963 134.427 29.8906C133.771 30.3849 133.327 30.9687 133.097 31.642L128.776 31.0284C129.117 29.8352 129.68 28.8381 130.464 28.0369C131.248 27.2273 132.207 26.6222 133.34 26.2216C134.474 25.8125 135.727 25.608 137.099 25.608C138.045 25.608 138.987 25.7188 139.924 25.9403C140.862 26.1619 141.718 26.5284 142.494 27.0398C143.269 27.5426 143.891 28.2287 144.36 29.098C144.837 29.9673 145.076 31.054 145.076 32.358V45.5H140.627V42.8026H140.474C140.192 43.348 139.796 43.8594 139.285 44.3366C138.782 44.8054 138.147 45.1847 137.38 45.4744C136.621 45.7557 135.731 45.8963 134.708 45.8963ZM135.91 42.4957C136.839 42.4957 137.644 42.3125 138.326 41.946C139.008 41.571 139.532 41.0767 139.898 40.4631C140.273 39.8494 140.461 39.1804 140.461 38.456V36.142C140.316 36.2614 140.069 36.3722 139.719 36.4744C139.379 36.5767 138.995 36.6662 138.569 36.7429C138.143 36.8196 137.721 36.8878 137.303 36.9474C136.886 37.0071 136.523 37.0582 136.217 37.1009C135.526 37.1946 134.908 37.348 134.363 37.5611C133.817 37.7741 133.387 38.0724 133.072 38.456C132.756 38.831 132.599 39.3168 132.599 39.9134C132.599 40.7656 132.91 41.4091 133.532 41.8438C134.154 42.2784 134.947 42.4957 135.91 42.4957ZM149.729 45.5V25.8636H154.153V29.2003H154.383C154.792 28.0753 155.469 27.1974 156.415 26.5668C157.362 25.9276 158.491 25.608 159.803 25.608C161.133 25.608 162.254 25.9318 163.165 26.5795C164.086 27.2187 164.734 28.0923 165.109 29.2003H165.313C165.748 28.1094 166.481 27.2401 167.512 26.5923C168.552 25.9361 169.783 25.608 171.207 25.608C173.013 25.608 174.488 26.179 175.63 27.321C176.772 28.4631 177.343 30.1293 177.343 32.3196V45.5H172.702V33.0355C172.702 31.8168 172.379 30.9261 171.731 30.3636C171.083 29.7926 170.29 29.5071 169.353 29.5071C168.237 29.5071 167.363 29.8565 166.732 30.5554C166.11 31.2457 165.799 32.1449 165.799 33.2528V45.5H161.261V32.8438C161.261 31.8295 160.954 31.0199 160.34 30.4148C159.735 29.8097 158.942 29.5071 157.962 29.5071C157.298 29.5071 156.692 29.6776 156.147 30.0185C155.602 30.3509 155.167 30.8239 154.843 31.4375C154.519 32.0426 154.357 32.75 154.357 33.5597V45.5H149.729ZM190.731 45.8835C188.762 45.8835 187.062 45.4744 185.63 44.6562C184.207 43.8295 183.112 42.6619 182.345 41.1534C181.578 39.6364 181.194 37.8509 181.194 35.7969C181.194 33.777 181.578 32.0043 182.345 30.4787C183.12 28.9446 184.203 27.7514 185.592 26.8991C186.981 26.0384 188.613 25.608 190.488 25.608C191.699 25.608 192.841 25.804 193.914 26.196C194.997 26.5795 195.951 27.1761 196.778 27.9858C197.613 28.7955 198.27 29.8267 198.747 31.0795C199.224 32.3239 199.463 33.8068 199.463 35.5284V36.9474H183.368V33.8281H195.027C195.018 32.9418 194.826 32.1534 194.451 31.4631C194.076 30.7642 193.552 30.2145 192.879 29.8139C192.214 29.4134 191.439 29.2131 190.552 29.2131C189.606 29.2131 188.775 29.4432 188.059 29.9034C187.343 30.3551 186.785 30.9517 186.385 31.6932C185.993 32.4261 185.792 33.2315 185.784 34.1094V36.8324C185.784 37.9744 185.993 38.9545 186.41 39.7727C186.828 40.5824 187.412 41.2045 188.162 41.6392C188.912 42.0653 189.789 42.2784 190.795 42.2784C191.468 42.2784 192.078 42.1847 192.623 41.9972C193.169 41.8011 193.642 41.5156 194.042 41.1406C194.443 40.7656 194.745 40.3011 194.95 39.7472L199.271 40.233C198.998 41.375 198.478 42.3722 197.711 43.2244C196.953 44.0682 195.981 44.7244 194.797 45.1932C193.612 45.6534 192.257 45.8835 190.731 45.8835ZM207.325 45.5L201.777 25.8636H206.494L209.946 39.6705H210.125L213.653 25.8636H218.319L221.848 39.5938H222.039L225.44 25.8636H230.17L224.609 45.5H219.789L216.108 32.2301H215.839L212.157 45.5H207.325ZM241.404 45.8835C239.487 45.8835 237.825 45.4616 236.418 44.6179C235.012 43.7741 233.921 42.5937 233.146 41.0767C232.379 39.5597 231.995 37.7869 231.995 35.7585C231.995 33.7301 232.379 31.9531 233.146 30.4276C233.921 28.902 235.012 27.7173 236.418 26.8736C237.825 26.0298 239.487 25.608 241.404 25.608C243.322 25.608 244.984 26.0298 246.39 26.8736C247.796 27.7173 248.883 28.902 249.65 30.4276C250.425 31.9531 250.813 33.7301 250.813 35.7585C250.813 37.7869 250.425 39.5597 249.65 41.0767C248.883 42.5937 247.796 43.7741 246.39 44.6179C244.984 45.4616 243.322 45.8835 241.404 45.8835ZM241.43 42.1761C242.469 42.1761 243.339 41.8906 244.038 41.3196C244.737 40.7401 245.256 39.9645 245.597 38.9929C245.947 38.0213 246.121 36.9389 246.121 35.7457C246.121 34.544 245.947 33.4574 245.597 32.4858C245.256 31.5057 244.737 30.7259 244.038 30.1463C243.339 29.5668 242.469 29.277 241.43 29.277C240.364 29.277 239.478 29.5668 238.771 30.1463C238.072 30.7259 237.548 31.5057 237.198 32.4858C236.857 33.4574 236.687 34.544 236.687 35.7457C236.687 36.9389 236.857 38.0213 237.198 38.9929C237.548 39.9645 238.072 40.7401 238.771 41.3196C239.478 41.8906 240.364 42.1761 241.43 42.1761ZM254.741 45.5V25.8636H259.228V29.1364H259.433C259.791 28.0028 260.404 27.1293 261.274 26.5156C262.152 25.8935 263.153 25.5824 264.278 25.5824C264.534 25.5824 264.819 25.5952 265.135 25.6207C265.458 25.6378 265.727 25.6676 265.94 25.7102V29.9673C265.744 29.8991 265.433 29.8395 265.007 29.7884C264.589 29.7287 264.184 29.6989 263.792 29.6989C262.949 29.6989 262.19 29.8821 261.517 30.2486C260.852 30.6065 260.328 31.1051 259.944 31.7443C259.561 32.3835 259.369 33.1207 259.369 33.956V45.5H254.741ZM273.233 39.3381L273.221 33.7514H273.962L281.019 25.8636H286.426L277.746 35.5284H276.787L273.233 39.3381ZM269.015 45.5V19.3182H273.642V45.5H269.015ZM281.338 45.5L274.946 36.5639L278.066 33.304L286.874 45.5H281.338ZM298.645 45.5V19.3182H308.463C310.474 19.3182 312.162 19.6676 313.526 20.3665C314.898 21.0653 315.933 22.0455 316.632 23.3068C317.339 24.5597 317.693 26.0213 317.693 27.6918C317.693 29.3707 317.335 30.8281 316.619 32.0639C315.912 33.2912 314.868 34.2415 313.487 34.9148C312.107 35.5795 310.411 35.9119 308.399 35.9119H301.406V31.9744H307.76C308.936 31.9744 309.899 31.8125 310.649 31.4886C311.399 31.1562 311.953 30.6747 312.311 30.044C312.678 29.4048 312.861 28.6207 312.861 27.6918C312.861 26.7628 312.678 25.9702 312.311 25.3139C311.945 24.6491 311.386 24.1463 310.636 23.8054C309.886 23.456 308.919 23.2812 307.734 23.2812H303.388V45.5H298.645ZM312.17 33.6364L318.652 45.5H313.359L306.993 33.6364H312.17ZM330.266 45.8835C328.298 45.8835 326.597 45.4744 325.165 44.6562C323.742 43.8295 322.647 42.6619 321.88 41.1534C321.113 39.6364 320.729 37.8509 320.729 35.7969C320.729 33.777 321.113 32.0043 321.88 30.4787C322.656 28.9446 323.738 27.7514 325.127 26.8991C326.516 26.0384 328.148 25.608 330.023 25.608C331.234 25.608 332.376 25.804 333.45 26.196C334.532 26.5795 335.487 27.1761 336.313 27.9858C337.148 28.7955 337.805 29.8267 338.282 31.0795C338.759 32.3239 338.998 33.8068 338.998 35.5284V36.9474H322.903V33.8281H334.562C334.553 32.9418 334.362 32.1534 333.987 31.4631C333.612 30.7642 333.087 30.2145 332.414 29.8139C331.749 29.4134 330.974 29.2131 330.087 29.2131C329.141 29.2131 328.31 29.4432 327.594 29.9034C326.879 30.3551 326.32 30.9517 325.92 31.6932C325.528 32.4261 325.327 33.2315 325.319 34.1094V36.8324C325.319 37.9744 325.528 38.9545 325.945 39.7727C326.363 40.5824 326.947 41.2045 327.697 41.6392C328.447 42.0653 329.325 42.2784 330.33 42.2784C331.004 42.2784 331.613 42.1847 332.158 41.9972C332.704 41.8011 333.177 41.5156 333.577 41.1406C333.978 40.7656 334.281 40.3011 334.485 39.7472L338.806 40.233C338.533 41.375 338.013 42.3722 337.246 43.2244C336.488 44.0682 335.516 44.7244 334.332 45.1932C333.147 45.6534 331.792 45.8835 330.266 45.8835ZM342.913 52.8636V25.8636H347.464V29.1108H347.733C347.971 28.6335 348.308 28.1264 348.743 27.5895C349.177 27.044 349.765 26.5795 350.507 26.196C351.248 25.804 352.194 25.608 353.345 25.608C354.862 25.608 356.23 25.9957 357.449 26.7713C358.676 27.5384 359.647 28.6761 360.363 30.1847C361.088 31.6847 361.45 33.5256 361.45 35.7074C361.45 37.8636 361.096 39.696 360.389 41.2045C359.681 42.7131 358.718 43.8636 357.5 44.6562C356.281 45.4489 354.9 45.8452 353.358 45.8452C352.233 45.8452 351.299 45.6577 350.558 45.2827C349.816 44.9077 349.22 44.456 348.768 43.9276C348.325 43.3906 347.98 42.8835 347.733 42.4062H347.541V52.8636H342.913ZM347.451 35.6818C347.451 36.9517 347.63 38.0639 347.988 39.0185C348.355 39.973 348.879 40.7187 349.561 41.2557C350.251 41.7841 351.086 42.0483 352.066 42.0483C353.089 42.0483 353.946 41.7756 354.636 41.2301C355.326 40.6761 355.846 39.9219 356.196 38.9673C356.554 38.0043 356.733 36.9091 356.733 35.6818C356.733 34.4631 356.558 33.3807 356.208 32.4347C355.859 31.4886 355.339 30.7472 354.649 30.2102C353.958 29.6733 353.098 29.4048 352.066 29.4048C351.078 29.4048 350.238 29.6648 349.548 30.1847C348.858 30.7045 348.333 31.4332 347.975 32.3707C347.626 33.3082 347.451 34.4119 347.451 35.6818ZM373.978 45.8835C372.061 45.8835 370.399 45.4616 368.993 44.6179C367.586 43.7741 366.495 42.5937 365.72 41.0767C364.953 39.5597 364.569 37.7869 364.569 35.7585C364.569 33.7301 364.953 31.9531 365.72 30.4276C366.495 28.902 367.586 27.7173 368.993 26.8736C370.399 26.0298 372.061 25.608 373.978 25.608C375.896 25.608 377.558 26.0298 378.964 26.8736C380.37 27.7173 381.457 28.902 382.224 30.4276C383 31.9531 383.387 33.7301 383.387 35.7585C383.387 37.7869 383 39.5597 382.224 41.0767C381.457 42.5937 380.37 43.7741 378.964 44.6179C377.558 45.4616 375.896 45.8835 373.978 45.8835ZM374.004 42.1761C375.044 42.1761 375.913 41.8906 376.612 41.3196C377.311 40.7401 377.831 39.9645 378.172 38.9929C378.521 38.0213 378.696 36.9389 378.696 35.7457C378.696 34.544 378.521 33.4574 378.172 32.4858C377.831 31.5057 377.311 30.7259 376.612 30.1463C375.913 29.5668 375.044 29.277 374.004 29.277C372.939 29.277 372.052 29.5668 371.345 30.1463C370.646 30.7259 370.122 31.5057 369.772 32.4858C369.431 33.4574 369.261 34.544 369.261 35.7457C369.261 36.9389 369.431 38.0213 369.772 38.9929C370.122 39.9645 370.646 40.7401 371.345 41.3196C372.052 41.8906 372.939 42.1761 374.004 42.1761ZM387.315 45.5V25.8636H391.803V29.1364H392.007C392.365 28.0028 392.979 27.1293 393.848 26.5156C394.726 25.8935 395.727 25.5824 396.852 25.5824C397.108 25.5824 397.393 25.5952 397.709 25.6207C398.033 25.6378 398.301 25.6676 398.514 25.7102V29.9673C398.318 29.8991 398.007 29.8395 397.581 29.7884C397.163 29.7287 396.759 29.6989 396.366 29.6989C395.523 29.6989 394.764 29.8821 394.091 30.2486C393.426 30.6065 392.902 31.1051 392.518 31.7443C392.135 32.3835 391.943 33.1207 391.943 33.956V45.5H387.315ZM412.449 25.8636V29.4432H401.161V25.8636H412.449ZM403.947 21.1591H408.575V39.5938C408.575 40.2159 408.669 40.6932 408.857 41.0256C409.053 41.3494 409.308 41.571 409.624 41.6903C409.939 41.8097 410.288 41.8693 410.672 41.8693C410.962 41.8693 411.226 41.848 411.464 41.8054C411.712 41.7628 411.899 41.7244 412.027 41.6903L412.807 45.3082C412.56 45.3935 412.206 45.4872 411.746 45.5895C411.294 45.6918 410.74 45.7514 410.084 45.7685C408.925 45.8026 407.881 45.6278 406.952 45.2443C406.023 44.8523 405.286 44.2472 404.74 43.429C404.203 42.6108 403.939 41.5881 403.947 40.3608V21.1591Z" fill="#EFFFE2"/>
</svg>
