<svg width="439" height="69" viewBox="0 0 439 69" fill="none" xmlns="http://www.w3.org/2000/svg">
<rect x="1" y="1" width="437" height="67" rx="11" fill="#04220B"/>
<rect x="1" y="1" width="437" height="67" rx="11" stroke="#89A076" stroke-width="2"/>
<path d="M28.9446 47.5H23.8821L33.0994 21.3182H38.9545L48.1847 47.5H43.1222L36.1293 26.6875H35.9247L28.9446 47.5ZM29.1108 37.2344H42.9176V41.044H29.1108V37.2344ZM56.3761 21.3182V47.5H51.6332V21.3182H56.3761ZM70.3842 47.5H61.5121V21.3182H70.5632C73.1626 21.3182 75.3956 21.8423 77.2621 22.8906C79.1371 23.9304 80.5774 25.4261 81.5831 27.3778C82.5888 29.3295 83.0916 31.6648 83.0916 34.3835C83.0916 37.1108 82.5845 39.4545 81.5703 41.4148C80.5646 43.375 79.1115 44.8793 77.2109 45.9276C75.3189 46.9759 73.0433 47.5 70.3842 47.5ZM66.255 43.3963H70.1541C71.978 43.3963 73.4993 43.0639 74.718 42.3991C75.9368 41.7259 76.853 40.7244 77.4666 39.3949C78.0803 38.0568 78.3871 36.3864 78.3871 34.3835C78.3871 32.3807 78.0803 30.7187 77.4666 29.3977C76.853 28.0682 75.9453 27.0753 74.7436 26.419C73.5504 25.7543 72.0675 25.4219 70.2947 25.4219H66.255V43.3963ZM96.5277 47.5V21.3182H113.3V25.294H101.271V32.402H112.15V36.3778H101.271V47.5H96.5277ZM117.136 47.5V27.8636H121.623V31.1364H121.827C122.185 30.0028 122.799 29.1293 123.668 28.5156C124.546 27.8935 125.548 27.5824 126.673 27.5824C126.928 27.5824 127.214 27.5952 127.529 27.6207C127.853 27.6378 128.121 27.6676 128.335 27.7102V31.9673C128.138 31.8991 127.827 31.8395 127.401 31.7884C126.984 31.7287 126.579 31.6989 126.187 31.6989C125.343 31.6989 124.585 31.8821 123.911 32.2486C123.246 32.6065 122.722 33.1051 122.339 33.7443C121.955 34.3835 121.763 35.1207 121.763 35.956V47.5H117.136ZM136.708 47.8963C135.464 47.8963 134.343 47.6747 133.346 47.2315C132.357 46.7798 131.573 46.1151 130.994 45.2372C130.423 44.3594 130.137 43.277 130.137 41.9901C130.137 40.8821 130.342 39.9659 130.751 39.2415C131.16 38.517 131.718 37.9375 132.425 37.5028C133.133 37.0682 133.93 36.7401 134.816 36.5185C135.711 36.2884 136.636 36.1222 137.59 36.0199C138.741 35.9006 139.674 35.794 140.39 35.7003C141.106 35.598 141.626 35.4446 141.95 35.2401C142.282 35.027 142.448 34.6989 142.448 34.2557V34.179C142.448 33.2159 142.163 32.4702 141.592 31.9418C141.021 31.4134 140.198 31.1491 139.124 31.1491C137.991 31.1491 137.092 31.3963 136.427 31.8906C135.771 32.3849 135.327 32.9687 135.097 33.642L130.776 33.0284C131.117 31.8352 131.68 30.8381 132.464 30.0369C133.248 29.2273 134.207 28.6222 135.34 28.2216C136.474 27.8125 137.727 27.608 139.099 27.608C140.045 27.608 140.987 27.7188 141.924 27.9403C142.862 28.1619 143.718 28.5284 144.494 29.0398C145.269 29.5426 145.891 30.2287 146.36 31.098C146.837 31.9673 147.076 33.054 147.076 34.358V47.5H142.627V44.8026H142.474C142.192 45.348 141.796 45.8594 141.285 46.3366C140.782 46.8054 140.147 47.1847 139.38 47.4744C138.621 47.7557 137.731 47.8963 136.708 47.8963ZM137.91 44.4957C138.839 44.4957 139.644 44.3125 140.326 43.946C141.008 43.571 141.532 43.0767 141.898 42.4631C142.273 41.8494 142.461 41.1804 142.461 40.456V38.142C142.316 38.2614 142.069 38.3722 141.719 38.4744C141.379 38.5767 140.995 38.6662 140.569 38.7429C140.143 38.8196 139.721 38.8878 139.303 38.9474C138.886 39.0071 138.523 39.0582 138.217 39.1009C137.526 39.1946 136.908 39.348 136.363 39.5611C135.817 39.7741 135.387 40.0724 135.072 40.456C134.756 40.831 134.599 41.3168 134.599 41.9134C134.599 42.7656 134.91 43.4091 135.532 43.8438C136.154 44.2784 136.947 44.4957 137.91 44.4957ZM151.729 47.5V27.8636H156.153V31.2003H156.383C156.792 30.0753 157.469 29.1974 158.415 28.5668C159.362 27.9276 160.491 27.608 161.803 27.608C163.133 27.608 164.254 27.9318 165.165 28.5795C166.086 29.2187 166.734 30.0923 167.109 31.2003H167.313C167.748 30.1094 168.481 29.2401 169.512 28.5923C170.552 27.9361 171.783 27.608 173.207 27.608C175.013 27.608 176.488 28.179 177.63 29.321C178.772 30.4631 179.343 32.1293 179.343 34.3196V47.5H174.702V35.0355C174.702 33.8168 174.379 32.9261 173.731 32.3636C173.083 31.7926 172.29 31.5071 171.353 31.5071C170.237 31.5071 169.363 31.8565 168.732 32.5554C168.11 33.2457 167.799 34.1449 167.799 35.2528V47.5H163.261V34.8438C163.261 33.8295 162.954 33.0199 162.34 32.4148C161.735 31.8097 160.942 31.5071 159.962 31.5071C159.298 31.5071 158.692 31.6776 158.147 32.0185C157.602 32.3509 157.167 32.8239 156.843 33.4375C156.519 34.0426 156.357 34.75 156.357 35.5597V47.5H151.729ZM192.731 47.8835C190.762 47.8835 189.062 47.4744 187.63 46.6562C186.207 45.8295 185.112 44.6619 184.345 43.1534C183.578 41.6364 183.194 39.8509 183.194 37.7969C183.194 35.777 183.578 34.0043 184.345 32.4787C185.12 30.9446 186.203 29.7514 187.592 28.8991C188.981 28.0384 190.613 27.608 192.488 27.608C193.699 27.608 194.841 27.804 195.914 28.196C196.997 28.5795 197.951 29.1761 198.778 29.9858C199.613 30.7955 200.27 31.8267 200.747 33.0795C201.224 34.3239 201.463 35.8068 201.463 37.5284V38.9474H185.368V35.8281H197.027C197.018 34.9418 196.826 34.1534 196.451 33.4631C196.076 32.7642 195.552 32.2145 194.879 31.8139C194.214 31.4134 193.439 31.2131 192.552 31.2131C191.606 31.2131 190.775 31.4432 190.059 31.9034C189.343 32.3551 188.785 32.9517 188.385 33.6932C187.993 34.4261 187.792 35.2315 187.784 36.1094V38.8324C187.784 39.9744 187.993 40.9545 188.41 41.7727C188.828 42.5824 189.412 43.2045 190.162 43.6392C190.912 44.0653 191.789 44.2784 192.795 44.2784C193.468 44.2784 194.078 44.1847 194.623 43.9972C195.169 43.8011 195.642 43.5156 196.042 43.1406C196.443 42.7656 196.745 42.3011 196.95 41.7472L201.271 42.233C200.998 43.375 200.478 44.3722 199.711 45.2244C198.953 46.0682 197.981 46.7244 196.797 47.1932C195.612 47.6534 194.257 47.8835 192.731 47.8835ZM209.325 47.5L203.777 27.8636H208.494L211.946 41.6705H212.125L215.653 27.8636H220.319L223.848 41.5938H224.039L227.44 27.8636H232.17L226.609 47.5H221.789L218.108 34.2301H217.839L214.157 47.5H209.325ZM243.404 47.8835C241.487 47.8835 239.825 47.4616 238.418 46.6179C237.012 45.7741 235.921 44.5937 235.146 43.0767C234.379 41.5597 233.995 39.7869 233.995 37.7585C233.995 35.7301 234.379 33.9531 235.146 32.4276C235.921 30.902 237.012 29.7173 238.418 28.8736C239.825 28.0298 241.487 27.608 243.404 27.608C245.322 27.608 246.984 28.0298 248.39 28.8736C249.796 29.7173 250.883 30.902 251.65 32.4276C252.425 33.9531 252.813 35.7301 252.813 37.7585C252.813 39.7869 252.425 41.5597 251.65 43.0767C250.883 44.5937 249.796 45.7741 248.39 46.6179C246.984 47.4616 245.322 47.8835 243.404 47.8835ZM243.43 44.1761C244.469 44.1761 245.339 43.8906 246.038 43.3196C246.737 42.7401 247.256 41.9645 247.597 40.9929C247.947 40.0213 248.121 38.9389 248.121 37.7457C248.121 36.544 247.947 35.4574 247.597 34.4858C247.256 33.5057 246.737 32.7259 246.038 32.1463C245.339 31.5668 244.469 31.277 243.43 31.277C242.364 31.277 241.478 31.5668 240.771 32.1463C240.072 32.7259 239.548 33.5057 239.198 34.4858C238.857 35.4574 238.687 36.544 238.687 37.7457C238.687 38.9389 238.857 40.0213 239.198 40.9929C239.548 41.9645 240.072 42.7401 240.771 43.3196C241.478 43.8906 242.364 44.1761 243.43 44.1761ZM256.741 47.5V27.8636H261.228V31.1364H261.433C261.791 30.0028 262.404 29.1293 263.274 28.5156C264.152 27.8935 265.153 27.5824 266.278 27.5824C266.534 27.5824 266.819 27.5952 267.135 27.6207C267.458 27.6378 267.727 27.6676 267.94 27.7102V31.9673C267.744 31.8991 267.433 31.8395 267.007 31.7884C266.589 31.7287 266.184 31.6989 265.792 31.6989C264.949 31.6989 264.19 31.8821 263.517 32.2486C262.852 32.6065 262.328 33.1051 261.944 33.7443C261.561 34.3835 261.369 35.1207 261.369 35.956V47.5H256.741ZM275.233 41.3381L275.221 35.7514H275.962L283.019 27.8636H288.426L279.746 37.5284H278.787L275.233 41.3381ZM271.015 47.5V21.3182H275.642V47.5H271.015ZM283.338 47.5L276.946 38.5639L280.066 35.304L288.874 47.5H283.338ZM300.645 47.5V21.3182H310.463C312.474 21.3182 314.162 21.6676 315.526 22.3665C316.898 23.0653 317.933 24.0455 318.632 25.3068C319.339 26.5597 319.693 28.0213 319.693 29.6918C319.693 31.3707 319.335 32.8281 318.619 34.0639C317.912 35.2912 316.868 36.2415 315.487 36.9148C314.107 37.5795 312.411 37.9119 310.399 37.9119H303.406V33.9744H309.76C310.936 33.9744 311.899 33.8125 312.649 33.4886C313.399 33.1562 313.953 32.6747 314.311 32.044C314.678 31.4048 314.861 30.6207 314.861 29.6918C314.861 28.7628 314.678 27.9702 314.311 27.3139C313.945 26.6491 313.386 26.1463 312.636 25.8054C311.886 25.456 310.919 25.2812 309.734 25.2812H305.388V47.5H300.645ZM314.17 35.6364L320.652 47.5H315.359L308.993 35.6364H314.17ZM332.266 47.8835C330.298 47.8835 328.597 47.4744 327.165 46.6562C325.742 45.8295 324.647 44.6619 323.88 43.1534C323.113 41.6364 322.729 39.8509 322.729 37.7969C322.729 35.777 323.113 34.0043 323.88 32.4787C324.656 30.9446 325.738 29.7514 327.127 28.8991C328.516 28.0384 330.148 27.608 332.023 27.608C333.234 27.608 334.376 27.804 335.45 28.196C336.532 28.5795 337.487 29.1761 338.313 29.9858C339.148 30.7955 339.805 31.8267 340.282 33.0795C340.759 34.3239 340.998 35.8068 340.998 37.5284V38.9474H324.903V35.8281H336.562C336.553 34.9418 336.362 34.1534 335.987 33.4631C335.612 32.7642 335.087 32.2145 334.414 31.8139C333.749 31.4134 332.974 31.2131 332.087 31.2131C331.141 31.2131 330.31 31.4432 329.594 31.9034C328.879 32.3551 328.32 32.9517 327.92 33.6932C327.528 34.4261 327.327 35.2315 327.319 36.1094V38.8324C327.319 39.9744 327.528 40.9545 327.945 41.7727C328.363 42.5824 328.947 43.2045 329.697 43.6392C330.447 44.0653 331.325 44.2784 332.33 44.2784C333.004 44.2784 333.613 44.1847 334.158 43.9972C334.704 43.8011 335.177 43.5156 335.577 43.1406C335.978 42.7656 336.281 42.3011 336.485 41.7472L340.806 42.233C340.533 43.375 340.013 44.3722 339.246 45.2244C338.488 46.0682 337.516 46.7244 336.332 47.1932C335.147 47.6534 333.792 47.8835 332.266 47.8835ZM344.913 54.8636V27.8636H349.464V31.1108H349.733C349.971 30.6335 350.308 30.1264 350.743 29.5895C351.177 29.044 351.765 28.5795 352.507 28.196C353.248 27.804 354.194 27.608 355.345 27.608C356.862 27.608 358.23 27.9957 359.449 28.7713C360.676 29.5384 361.647 30.6761 362.363 32.1847C363.088 33.6847 363.45 35.5256 363.45 37.7074C363.45 39.8636 363.096 41.696 362.389 43.2045C361.681 44.7131 360.718 45.8636 359.5 46.6562C358.281 47.4489 356.9 47.8452 355.358 47.8452C354.233 47.8452 353.299 47.6577 352.558 47.2827C351.816 46.9077 351.22 46.456 350.768 45.9276C350.325 45.3906 349.98 44.8835 349.733 44.4062H349.541V54.8636H344.913ZM349.451 37.6818C349.451 38.9517 349.63 40.0639 349.988 41.0185C350.355 41.973 350.879 42.7187 351.561 43.2557C352.251 43.7841 353.086 44.0483 354.066 44.0483C355.089 44.0483 355.946 43.7756 356.636 43.2301C357.326 42.6761 357.846 41.9219 358.196 40.9673C358.554 40.0043 358.733 38.9091 358.733 37.6818C358.733 36.4631 358.558 35.3807 358.208 34.4347C357.859 33.4886 357.339 32.7472 356.649 32.2102C355.958 31.6733 355.098 31.4048 354.066 31.4048C353.078 31.4048 352.238 31.6648 351.548 32.1847C350.858 32.7045 350.333 33.4332 349.975 34.3707C349.626 35.3082 349.451 36.4119 349.451 37.6818ZM375.978 47.8835C374.061 47.8835 372.399 47.4616 370.993 46.6179C369.586 45.7741 368.495 44.5937 367.72 43.0767C366.953 41.5597 366.569 39.7869 366.569 37.7585C366.569 35.7301 366.953 33.9531 367.72 32.4276C368.495 30.902 369.586 29.7173 370.993 28.8736C372.399 28.0298 374.061 27.608 375.978 27.608C377.896 27.608 379.558 28.0298 380.964 28.8736C382.37 29.7173 383.457 30.902 384.224 32.4276C385 33.9531 385.387 35.7301 385.387 37.7585C385.387 39.7869 385 41.5597 384.224 43.0767C383.457 44.5937 382.37 45.7741 380.964 46.6179C379.558 47.4616 377.896 47.8835 375.978 47.8835ZM376.004 44.1761C377.044 44.1761 377.913 43.8906 378.612 43.3196C379.311 42.7401 379.831 41.9645 380.172 40.9929C380.521 40.0213 380.696 38.9389 380.696 37.7457C380.696 36.544 380.521 35.4574 380.172 34.4858C379.831 33.5057 379.311 32.7259 378.612 32.1463C377.913 31.5668 377.044 31.277 376.004 31.277C374.939 31.277 374.052 31.5668 373.345 32.1463C372.646 32.7259 372.122 33.5057 371.772 34.4858C371.431 35.4574 371.261 36.544 371.261 37.7457C371.261 38.9389 371.431 40.0213 371.772 40.9929C372.122 41.9645 372.646 42.7401 373.345 43.3196C374.052 43.8906 374.939 44.1761 376.004 44.1761ZM389.315 47.5V27.8636H393.803V31.1364H394.007C394.365 30.0028 394.979 29.1293 395.848 28.5156C396.726 27.8935 397.727 27.5824 398.852 27.5824C399.108 27.5824 399.393 27.5952 399.709 27.6207C400.033 27.6378 400.301 27.6676 400.514 27.7102V31.9673C400.318 31.8991 400.007 31.8395 399.581 31.7884C399.163 31.7287 398.759 31.6989 398.366 31.6989C397.523 31.6989 396.764 31.8821 396.091 32.2486C395.426 32.6065 394.902 33.1051 394.518 33.7443C394.135 34.3835 393.943 35.1207 393.943 35.956V47.5H389.315ZM414.449 27.8636V31.4432H403.161V27.8636H414.449ZM405.947 23.1591H410.575V41.5938C410.575 42.2159 410.669 42.6932 410.857 43.0256C411.053 43.3494 411.308 43.571 411.624 43.6903C411.939 43.8097 412.288 43.8693 412.672 43.8693C412.962 43.8693 413.226 43.848 413.464 43.8054C413.712 43.7628 413.899 43.7244 414.027 43.6903L414.807 47.3082C414.56 47.3935 414.206 47.4872 413.746 47.5895C413.294 47.6918 412.74 47.7514 412.084 47.7685C410.925 47.8026 409.881 47.6278 408.952 47.2443C408.023 46.8523 407.286 46.2472 406.74 45.429C406.203 44.6108 405.939 43.5881 405.947 42.3608V23.1591Z" fill="#EFFFE2"/>
</svg>
